<?xml version="1.0" standalone="no"?>
<!DOCTYPE svg PUBLIC "-//W3C//DTD SVG 20010904//EN"
 "http://www.w3.org/TR/2001/REC-SVG-20010904/DTD/svg10.dtd">
<svg version="1.0" xmlns="http://www.w3.org/2000/svg"
 width="1024.000000pt" height="1024.000000pt" viewBox="0 0 1024.000000 1024.000000"
 preserveAspectRatio="xMidYMid meet">
<metadata>
Created by potrace 1.11, written by Peter Selinger 2001-2013
</metadata>
<g transform="translate(0.000000,1024.000000) scale(0.100000,-0.100000)"
fill="#000000" stroke="none">
<path d="M0 5120 l0 -3430 5120 0 5120 0 0 3430 0 3430 -5120 0 -5120 0 0
-3430z m4604 1755 c23 -5 314 -26 696 -50 368 -23 880 -64 891 -70 19 -13 8
-35 -26 -49 -28 -12 -53 -13 -123 -6 -48 5 -163 14 -257 20 -514 32 -837 50
-893 50 -43 0 -88 9 -150 31 -118 41 -244 69 -319 69 -40 0 -63 4 -63 11 0 9
31 10 111 5 62 -3 121 -8 133 -11z m-248 -52 c-24 -26 -35 -60 -66 -215 -6
-32 -15 -60 -20 -63 -4 -3 -4 12 1 33 5 20 16 70 25 110 23 108 48 162 76 162
5 0 -2 -12 -16 -27z m211 11 c-3 -3 -12 -4 -19 -1 -8 3 -5 6 6 6 11 1 17 -2
13 -5z m-45 -191 c-38 -19 -81 -77 -107 -146 -10 -26 -20 -46 -22 -44 -2 3 6
31 18 63 24 64 93 144 125 144 13 0 8 -6 -14 -17z m806 0 c-10 -2 -26 -2 -35
0 -10 3 -2 5 17 5 19 0 27 -2 18 -5z m149 1 c-3 -3 -12 -4 -19 -1 -8 3 -5 6 6
6 11 1 17 -2 13 -5z m513 -38 c0 -2 -15 -6 -34 -8 -19 -2 -32 0 -30 4 5 8 64
12 64 4z m-1740 -25 c0 -17 -14 -18 -50 -5 l-35 13 43 0 c23 1 42 -3 42 -8z
m-144 -111 c0 -11 -4 -20 -9 -20 -5 0 -5 -10 -2 -21 5 -14 3 -19 -3 -15 -6 4
-8 -2 -4 -16 4 -15 2 -19 -7 -13 -10 5 -11 2 -6 -14 3 -11 2 -21 -3 -21 -6 0
-8 -9 -5 -20 3 -12 0 -20 -7 -20 -7 0 -9 -8 -5 -20 4 -12 3 -26 -3 -33 -5 -7
-9 -30 -9 -52 -1 -22 -5 -74 -9 -115 -6 -61 -9 -69 -15 -45 l-7 30 -1 -36 c0
-19 4 -40 11 -47 8 -8 8 -12 1 -12 -30 0 -30 71 2 242 31 168 81 321 81 248z
m1699 10 c-3 -5 -10 -10 -16 -10 -5 0 -9 5 -9 10 0 6 7 10 16 10 8 0 12 -4 9
-10z m-1435 -50 c0 -6 -28 -10 -65 -10 -37 0 -65 4 -65 10 0 6 28 10 65 10 37
0 65 -4 65 -10z m1187 -16 c-3 -3 -12 -4 -19 -1 -8 3 -5 6 6 6 11 1 17 -2 13
-5z m-379 -50 c-10 -39 6 -240 22 -259 4 -5 15 -48 25 -95 9 -47 18 -92 21
-100 2 -8 30 -23 62 -33 63 -20 187 -80 215 -105 17 -15 16 -17 -13 -47 -17
-17 -28 -34 -25 -37 3 -3 -1 -11 -10 -18 -26 -21 -16 -62 31 -130 25 -36 90
-130 144 -210 108 -161 131 -186 181 -200 44 -13 230 -13 263 0 32 12 32 21 2
57 l-25 29 62 -4 c34 -2 89 -10 122 -19 38 -10 121 -17 230 -19 276 -7 509
-24 685 -51 147 -23 208 -27 555 -33 428 -8 581 -19 785 -56 243 -44 404 -100
525 -182 61 -41 79 -62 153 -172 63 -95 74 -116 44 -85 -21 22 -37 43 -36 46
2 3 -3 6 -10 6 -8 0 -12 -6 -9 -14 3 -8 -2 -13 -12 -13 -10 0 -15 5 -12 14 4
11 -1 11 -26 -2 -31 -16 -58 -40 -92 -85 -17 -23 -19 -23 -37 -8 -10 9 -24 16
-31 16 -7 0 -12 9 -12 20 -1 11 -7 19 -13 17 -7 -1 -20 11 -29 26 -9 16 -30
36 -47 46 -29 17 -30 18 -11 29 23 13 129 11 190 -3 112 -26 89 9 -27 40 -239
64 -696 73 -1382 25 -222 -15 -294 -27 -153 -24 44 1 83 -3 90 -10 8 -6 77
-12 177 -13 164 -3 164 -3 177 -28 13 -24 13 -24 19 -4 4 16 12 20 34 18 16
-2 62 -5 103 -6 l75 -3 -49 -49 c-98 -98 -201 -295 -203 -389 -1 -44 -3 -47
-31 -52 -59 -8 -1656 -15 -1651 -6 3 4 45 10 94 13 49 3 98 10 108 16 18 11
18 11 -1 13 -11 1 -23 1 -27 0 -5 0 -8 3 -8 8 0 5 24 12 53 16 28 3 75 10 102
16 28 5 61 9 75 8 67 -2 85 21 74 92 -5 26 -1 40 12 53 9 10 22 43 28 74 l12
57 44 3 c64 3 87 10 93 26 5 12 -60 14 -434 15 -257 0 -439 -3 -439 -9 0 -15
16 -20 78 -21 54 -1 61 -4 66 -25 3 -12 21 -39 40 -58 30 -32 31 -36 14 -42
-23 -7 -48 -54 -49 -91 0 -24 -2 -25 -8 -8 -6 15 -9 10 -15 -24 -3 -24 -13
-50 -22 -58 -19 -20 -13 -25 39 -33 33 -5 38 -8 22 -14 -11 -4 -33 -13 -50
-21 -33 -15 -197 -21 -946 -31 l-446 -7 -6 24 c-3 13 -6 28 -6 33 1 5 -4 12
-9 15 -5 3 -19 38 -32 76 -61 187 -156 309 -335 430 -96 64 -143 85 -255 114
-349 90 -738 19 -982 -178 -95 -76 -154 -144 -216 -248 -37 -62 -51 -78 -67
-75 -19 4 -19 3 -2 -10 18 -14 18 -18 -12 -114 -16 -54 -37 -121 -45 -149 -14
-47 -15 -48 -10 -10 3 22 11 53 17 69 8 23 8 31 -1 34 -7 2 -12 8 -12 14 0 6
6 8 14 5 8 -3 16 2 19 14 3 10 1 19 -4 19 -5 0 -9 -6 -10 -12 0 -7 -4 -2 -10
10 -5 13 -6 28 -3 33 12 19 -22 3 -48 -23 -19 -19 -28 -23 -28 -13 0 8 6 15
13 16 9 0 9 2 -1 6 -6 2 -10 9 -7 13 3 5 12 7 20 3 8 -3 15 0 15 6 0 6 5 11
11 11 6 0 17 7 25 15 9 8 11 15 5 15 -5 0 -12 -4 -15 -9 -3 -5 -15 -11 -26
-14 -15 -4 -20 0 -20 15 0 15 5 18 23 13 17 -5 19 -4 7 4 -12 9 -12 11 -1 11
11 0 11 3 -2 18 -10 11 -13 22 -7 32 6 12 4 16 -10 16 -14 0 -16 -3 -8 -13 8
-10 6 -13 -6 -13 -10 0 -16 9 -16 23 -1 20 -2 20 -11 4 -8 -13 -6 -21 5 -33 9
-8 20 -13 25 -9 5 3 12 1 16 -5 3 -5 -3 -10 -14 -10 -16 0 -19 -5 -15 -27 4
-26 3 -26 -8 -8 -7 11 -13 26 -14 34 -2 8 -10 21 -20 30 -9 9 -14 10 -10 4 4
-7 3 -13 -3 -13 -18 0 -41 12 -41 22 0 5 -7 16 -15 24 -8 9 -15 11 -15 6 0 -6
-9 -8 -21 -5 -15 4 -19 12 -17 32 2 19 -2 26 -17 28 -11 2 -14 0 -7 -3 6 -3
12 -13 12 -22 0 -8 -3 -12 -6 -9 -4 3 -16 0 -28 -8 -28 -21 -35 -19 -29 8 4
19 3 20 -7 5 -6 -10 -17 -18 -25 -18 -9 0 -12 6 -9 18 5 15 4 15 -6 -1 -6 -10
-22 -22 -36 -27 -17 -7 -22 -15 -18 -27 5 -15 4 -16 -6 -3 -9 11 -13 12 -17 3
-2 -7 -12 -13 -21 -13 -13 0 -13 2 3 14 11 7 16 20 12 29 -3 9 1 18 9 21 12 4
14 1 9 -15 -6 -18 -5 -19 14 -7 24 14 27 27 9 29 -7 1 -20 3 -28 4 -8 1 -23 3
-32 4 -10 0 -18 8 -18 16 0 8 -5 15 -11 15 -7 0 -9 -10 -5 -25 5 -18 2 -25 -9
-25 -8 0 -15 6 -15 13 0 8 -6 14 -12 14 -7 0 -24 3 -36 7 -21 7 -23 5 -18 -12
9 -27 -42 -42 -60 -17 -16 22 -28 2 -14 -24 15 -29 13 -31 -25 -29 -37 1 -46
12 -19 22 10 4 14 12 10 23 -4 9 -1 20 6 24 7 4 9 12 4 16 -9 10 -38 -26 -30
-39 6 -10 -35 -48 -51 -47 -5 0 -4 3 3 6 6 2 12 11 12 19 0 8 5 14 10 14 6 0
10 5 10 11 0 6 -6 9 -14 6 -8 -3 -17 1 -20 10 -5 12 -15 14 -41 10 -21 -3 -33
-2 -30 4 4 5 1 9 -4 9 -6 0 -11 -8 -11 -19 0 -24 -39 -35 -60 -17 -8 7 -21 11
-27 9 -7 -3 -13 0 -13 6 0 18 -20 12 -21 -6 -1 -17 -2 -17 -6 0 -2 9 -11 17
-19 17 -8 0 -14 5 -14 10 0 6 -12 10 -26 10 -17 0 -23 4 -18 13 6 10 4 10 -7
0 -16 -15 -33 -17 -24 -3 3 6 1 10 -4 10 -6 0 -11 -8 -12 -17 0 -15 -2 -15 -8
2 -5 12 -4 23 3 27 8 5 7 8 -2 8 -7 0 -10 5 -7 10 3 6 -1 10 -9 10 -9 0 -16 6
-17 13 -1 6 -5 1 -9 -13 l-8 -25 -1 28 c-1 31 -12 45 -53 66 -15 8 -25 18 -22
22 3 5 -7 12 -23 15 -15 4 -37 18 -48 30 -12 13 -25 21 -28 18 -3 -3 -10 4
-17 15 -6 12 -8 21 -4 21 4 0 -1 9 -11 20 -15 17 -16 24 -7 45 7 14 22 30 34
35 13 5 17 9 10 9 -7 1 -35 -10 -62 -24 -28 -14 -50 -20 -50 -14 0 5 -15 1
-32 -11 l-33 -22 25 22 c14 12 41 35 60 51 34 28 35 29 10 30 -20 0 -17 3 15
14 22 7 36 13 31 14 -5 1 1 13 15 28 l24 27 -30 -21 c-16 -11 -39 -23 -51 -27
-11 -3 -37 -21 -57 -40 -20 -18 -38 -31 -40 -29 -3 2 -18 -12 -36 -32 -17 -20
-31 -31 -31 -26 0 33 243 213 254 188 2 -7 5 -2 5 9 1 14 9 24 24 28 12 3 31
14 42 24 11 10 26 17 33 14 7 -2 11 2 10 10 -2 7 3 12 9 11 7 -2 13 2 13 8 0
5 5 7 10 4 6 -3 10 -2 10 3 0 8 39 30 50 28 3 0 16 7 29 16 13 9 30 14 39 11
10 -4 13 -2 8 5 -8 13 29 26 46 16 7 -5 9 -2 5 8 -4 12 -1 14 15 10 14 -3 19
-1 14 6 -4 7 7 13 29 18 19 3 35 11 35 17 0 7 4 7 12 -1 17 -17 31 -15 24 3
-3 9 1 15 11 15 8 0 56 14 105 31 49 17 96 28 103 25 8 -3 15 -1 17 4 4 11
245 61 323 66 86 6 99 8 106 18 7 9 66 10 149 2 140 -14 348 -37 380 -41 19
-3 80 -7 135 -10 55 -3 116 -8 135 -10 25 -3 31 -2 20 5 -8 5 -37 11 -65 12
-45 1 -43 2 20 7 69 6 69 6 -50 14 -200 13 -462 44 -453 53 3 2 67 -3 144 -11
208 -22 442 -35 599 -33 140 1 140 1 -65 9 -232 10 -525 35 -546 47 -12 6 -8
15 19 39 19 17 43 35 54 41 26 14 218 78 262 87 18 4 83 29 143 56 61 27 114
47 118 44 5 -3 10 -2 12 3 4 10 114 52 136 52 38 0 99 -104 136 -232 15 -48
25 -72 25 -56 1 44 -55 208 -89 262 -25 38 -29 51 -18 58 9 5 23 -4 46 -29
l34 -38 -31 47 c-21 31 -46 54 -81 71 -46 23 -49 27 -32 36 32 17 96 28 117
21 12 -4 25 -1 33 7 7 7 26 13 40 13 15 0 42 4 60 10 45 12 87 -9 133 -68 73
-94 99 -169 129 -374 32 -213 27 -198 58 -199 15 -1 38 -5 52 -10 17 -6 9 -7
-27 -3 l-52 6 15 -54 c30 -98 74 -153 223 -278 23 -19 81 -74 129 -122 57 -58
89 -83 94 -75 11 18 10 29 -4 21 -6 -4 -8 -3 -5 3 4 6 -8 20 -26 32 -17 11
-29 21 -25 21 17 0 148 -92 143 -101 -4 -5 -1 -9 4 -9 6 0 11 5 11 11 0 8 4 8
13 2 34 -27 197 -45 197 -22 0 6 7 9 15 6 8 -4 17 -2 20 4 4 5 11 7 16 3 5 -3
7 -9 4 -14 -6 -10 15 -8 34 4 7 5 16 4 20 -1 9 -14 116 -16 140 -4 16 9 22 8
29 -5 8 -14 41 -15 286 -12 233 2 278 5 286 18 7 11 10 11 10 2 0 -25 20 -1
21 26 1 20 3 22 6 8 5 -18 6 -18 20 5 13 23 13 23 8 2 -5 -16 -2 -23 8 -23 20
0 48 71 35 88 -6 7 -7 12 -1 12 5 0 7 21 3 50 -5 35 -15 59 -34 79 -15 16 -29
33 -29 38 -1 4 -6 7 -10 5 -4 -1 -18 3 -30 9 -12 7 -52 20 -89 29 -37 10 -74
25 -82 33 -9 8 -20 17 -24 19 -10 4 -37 41 -199 283 -114 169 -193 310 -193
345 0 12 -2 13 -9 1 -7 -11 -10 -10 -14 5 -13 41 -77 342 -77 357 0 10 -6 17
-12 17 -9 0 -13 17 -14 48 -1 26 -6 92 -12 147 -10 87 -9 102 5 117 22 25 23
23 11 -18z m-42 -206 c-10 -56 -20 -106 -23 -111 -6 -10 -42 30 -43 46 0 5 10
6 23 2 21 -6 21 -5 3 9 -12 10 -16 21 -11 33 4 10 9 34 12 53 2 19 11 62 21
95 l16 60 10 -42 c6 -31 4 -71 -8 -145z m-1049 0 c-3 -8 -6 -5 -6 6 -1 11 2
17 5 13 3 -3 4 -12 1 -19z m-13 -92 c-4 -31 -9 -54 -12 -52 -2 3 -1 30 3 61 3
31 9 55 11 52 3 -2 2 -30 -2 -61z m1082 -10 c0 -15 -5 -21 -10 -16 -5 5 -6 16
-3 24 9 23 15 19 13 -8z m-436 -105 c61 -5 24 -7 -130 -7 -118 1 -192 4 -165
7 70 8 195 8 295 0z m-573 -23 c-21 -7 -32 -7 -40 1 -8 8 0 11 29 10 39 -1 39
-1 11 -11z m913 2 c0 -5 19 -13 43 -18 l42 -10 -37 -1 c-20 -1 -40 4 -43 9 -3
6 -22 10 -41 10 -45 0 -44 16 1 17 19 1 35 -3 35 -7z m-497 -17 c37 -3 67 -9
67 -12 0 -3 -60 -7 -133 -8 -72 -2 -147 -5 -164 -8 -19 -3 -33 -2 -33 4 0 22
145 36 263 24z m396 -27 c6 -4 11 -11 11 -15 0 -6 -49 0 -158 18 -2 1 -1 5 2
9 5 9 127 -1 145 -12z m-196 7 c-24 -2 -62 -2 -85 0 -24 2 -5 4 42 4 47 0 66
-2 43 -4z m260 0 c-7 -2 -19 -2 -25 0 -7 3 -2 5 12 5 14 0 19 -2 13 -5z m72
-19 c20 -15 20 -16 -4 -12 -14 2 -26 9 -29 16 -5 16 9 15 33 -4z m-882 -1 c-7
-2 -19 -2 -25 0 -7 3 -2 5 12 5 14 0 19 -2 13 -5z m-603 -43 c0 -5 -4 -10 -10
-10 -5 0 -10 5 -10 10 0 6 5 10 10 10 6 0 10 -4 10 -10z m171 -47 c13 -16 12
-17 -3 -4 -10 7 -18 15 -18 17 0 8 8 3 21 -13z m416 -39 c-3 -3 -12 -4 -19 -1
-8 3 -5 6 6 6 11 1 17 -2 13 -5z m1358 -14 c-10 -11 -15 -20 -11 -20 5 0 -4
-20 -18 -44 -14 -25 -26 -51 -26 -59 0 -17 123 -194 229 -329 88 -114 90 -114
242 -104 54 3 100 2 103 -2 3 -5 0 -9 -7 -10 -211 -23 -232 -20 -290 35 -40
39 -155 191 -246 325 -65 96 -67 122 -18 175 20 21 37 41 37 46 0 4 5 7 12 7
6 0 3 -9 -7 -20z m-285 -40 c0 -5 -4 -10 -10 -10 -5 0 -10 5 -10 10 0 6 5 10
10 10 6 0 10 -4 10 -10z m665 -428 c-3 -7 2 -15 9 -18 8 -3 17 -12 20 -19 4
-11 -3 -13 -32 -9 -20 2 -62 6 -92 7 -45 3 -57 8 -70 28 -8 13 -68 94 -132
180 -65 86 -118 163 -118 171 0 7 7 24 17 37 l16 24 193 -194 c106 -107 191
-200 189 -207z m-1445 368 c0 -5 -20 -10 -45 -10 -25 0 -45 5 -45 10 0 6 20
10 45 10 25 0 45 -4 45 -10z m90 0 c21 -7 19 -8 -17 -9 -24 -1 -43 4 -43 9 0
12 24 12 60 0z m-115 -39 c10 -18 -15 -22 -42 -7 l-28 15 32 1 c17 0 34 -4 38
-9z m511 -188 c-7 -8 -46 69 -45 90 0 15 8 4 25 -32 13 -30 22 -56 20 -58z
m-2301 7 c-3 -5 -10 -10 -16 -10 -5 0 -9 5 -9 10 0 6 7 10 16 10 8 0 12 -4 9
-10z m2753 -46 c-4 -3 -12 5 -18 18 -12 22 -12 22 6 6 10 -10 15 -20 12 -24z
m-422 -16 c16 -35 16 -40 2 -55 -15 -14 -19 -11 -42 35 -14 28 -26 53 -26 54
0 2 11 4 24 4 19 1 28 -7 42 -38z m367 4 c-3 -12 -9 -22 -14 -22 -12 0 -11 7
2 32 13 25 20 19 12 -10z m657 -2 c11 -11 20 -26 20 -34 0 -7 7 -19 15 -26 17
-14 3 -50 -20 -50 -18 0 -19 12 -4 27 7 7 8 17 2 27 -8 15 -12 15 -36 -4 -15
-12 -27 -17 -27 -12 0 6 6 13 13 15 7 4 3 8 -10 12 -23 7 -33 35 -13 35 6 0
10 7 10 15 0 21 26 19 50 -5z m-2833 -16 c-3 -3 -12 -4 -19 -1 -8 3 -5 6 6 6
11 1 17 -2 13 -5z m48 -4 c8 -13 -5 -13 -25 0 -13 8 -13 10 2 10 9 0 20 -4 23
-10z m2219 -15 c3 -8 1 -15 -4 -15 -6 0 -10 7 -10 15 0 8 2 15 4 15 2 0 6 -7
10 -15z m-900 -27 c-3 -4 -11 -5 -19 -1 -8 3 -15 0 -15 -6 0 -6 8 -11 18 -11
14 0 15 -2 2 -10 -20 -13 -73 -13 -65 0 3 6 2 10 -3 10 -6 0 -12 -6 -15 -14
-5 -12 -15 -10 -57 11 -28 14 -49 27 -47 29 2 2 37 8 78 12 71 7 134 -3 123
-20z m-214 -8 c0 -5 -4 -10 -10 -10 -5 0 -10 5 -10 10 0 6 5 10 10 10 6 0 10
-4 10 -10z m295 -21 c16 -16 -39 -9 -60 7 -18 13 -17 14 15 8 19 -4 39 -11 45
-15z m824 -14 c13 -26 15 -27 27 -11 12 17 14 16 33 -15 28 -45 27 -49 -14
-49 -19 0 -35 5 -35 11 0 5 -4 8 -8 5 -5 -3 -15 18 -24 45 -16 54 -3 63 21 14z
m-379 15 c0 -5 -2 -10 -4 -10 -3 0 -8 5 -11 10 -3 6 -1 10 4 10 6 0 11 -4 11
-10z m-21 -54 c0 -6 -3 -5 -6 2 -2 6 -14 12 -25 12 -18 0 -19 2 -7 16 12 14
14 14 26 -2 7 -10 13 -23 12 -28z m97 -55 c-4 -36 -12 -70 -17 -76 -7 -7 -8 0
-3 20 4 16 8 57 8 91 1 41 4 57 10 47 5 -9 5 -45 2 -82z m-568 82 c-10 -2 -28
-2 -40 0 -13 2 -5 4 17 4 22 1 32 -1 23 -4z m606 -8 c3 -9 0 -15 -9 -15 -9 0
-12 6 -9 15 4 8 7 15 9 15 2 0 5 -7 9 -15z m-760 -16 c-7 -11 -91 -12 -98 0
-9 14 0 16 53 13 28 -2 48 -8 45 -13z m334 14 c-21 -2 -57 -2 -80 0 -24 2 -7
4 37 4 44 0 63 -2 43 -4z m-190 -20 c6 -19 -60 -17 -84 2 -18 14 -15 15 30 13
29 -2 51 -8 54 -15z m1317 -3 l60 -7 -61 -2 c-42 -1 -66 4 -80 15 -19 15 -19
16 1 9 11 -4 47 -11 80 -15z m-786 -19 c-3 -6 -10 -7 -18 -2 -7 5 -10 14 -6
21 9 14 29 -2 24 -19z m-3439 -45 c-14 -14 -153 -86 -165 -86 -4 0 -3 5 0 10
3 6 0 10 -7 10 -7 0 -2 11 12 25 23 22 109 53 155 54 17 1 17 -1 5 -13z m3580
-56 c0 -5 -2 -10 -4 -10 -3 0 -8 5 -11 10 -3 6 -1 10 4 10 6 0 11 -4 11 -10z
m57 -42 c-3 -8 -6 -5 -6 6 -1 11 2 17 5 13 3 -3 4 -12 1 -19z m-288 -32 c6 -7
25 -16 41 -20 22 -4 30 -11 30 -27 0 -18 -4 -20 -32 -14 -18 4 -37 14 -41 21
-4 8 -15 14 -22 14 -17 0 -17 2 -9 24 8 20 18 20 33 2z m541 -22 c0 -2 -7 -4
-15 -4 -8 0 -15 4 -15 10 0 5 7 7 15 4 8 -4 15 -8 15 -10z m-359 -56 c22 -6
39 -15 39 -20 0 -5 -8 -7 -17 -4 -10 3 -30 8 -45 12 -16 3 -28 10 -28 15 0 12
5 11 51 -3z m89 -28 c0 -3 -7 -15 -15 -26 -14 -18 -15 -16 -12 24 2 36 4 40
15 25 6 -9 12 -20 12 -23z m40 7 c0 -5 -4 -5 -10 -2 -5 3 -10 14 -10 23 0 15
2 15 10 2 5 -8 10 -19 10 -23z m-4086 -52 c-4 -8 -13 -15 -21 -15 -13 0 -13 3
-3 15 7 8 16 15 21 15 5 0 6 -7 3 -15z m3586 -105 c0 -23 -4 -24 -31 -10 -27
15 -24 30 6 30 18 0 25 -5 25 -20z m-3440 -20 c0 -5 -4 -10 -10 -10 -5 0 -10
5 -10 10 0 6 5 10 10 10 6 0 10 -4 10 -10z m3850 -40 c0 -5 -7 -10 -16 -10 -8
0 -12 5 -9 10 3 6 10 10 16 10 5 0 9 -4 9 -10z m-237 -7 c-7 -2 -19 -2 -25 0
-7 3 -2 5 12 5 14 0 19 -2 13 -5z m-1078 -109 c22 -7 29 -12 15 -9 -89 14
-156 16 -214 5 -37 -7 -66 -16 -66 -20 0 -4 -14 -13 -30 -20 -17 -7 -29 -15
-26 -17 2 -2 17 2 34 11 56 29 154 41 232 27 38 -7 70 -17 70 -22 0 -6 4 -8 8
-5 4 2 19 -4 32 -14 24 -19 23 -19 -35 0 -117 37 -304 12 -321 -43 -4 -14 -13
-18 -30 -14 -16 3 -33 -3 -47 -15 l-22 -19 25 7 c19 5 14 -1 -20 -28 -25 -19
-47 -33 -50 -31 -3 3 9 16 25 29 17 13 26 24 20 24 -13 0 -85 -72 -85 -85 0
-5 -9 -16 -20 -23 -36 -22 -21 5 33 60 68 69 105 98 125 99 14 1 14 2 -1 6
-18 5 -18 5 0 19 17 13 17 14 -2 7 -37 -12 -100 -60 -150 -115 -87 -95 -98
-111 -127 -198 -13 -38 -17 -44 -13 -20 15 93 109 239 196 304 60 45 164 94
223 106 65 12 177 10 221 -6z m-2340 -34 c-3 -5 -12 -10 -18 -10 -7 0 -6 4 3
10 19 12 23 12 15 0z m6818 -37 c-7 -2 -21 -2 -30 0 -10 3 -4 5 12 5 17 0 24
-2 18 -5z m-6764 -48 c0 -5 -4 -3 -9 5 -5 8 -9 22 -9 30 0 16 17 -16 18 -35z
m6664 24 c-52 -20 -163 -110 -163 -132 0 -6 19 9 43 32 43 45 127 91 162 90
12 0 5 -6 -18 -14 -42 -16 -88 -45 -130 -84 -38 -34 -101 -147 -93 -167 3 -8
2 -12 -3 -9 -12 7 -25 -31 -16 -45 3 -5 -1 -20 -11 -32 -14 -20 -16 -20 -9 -3
3 11 8 35 10 53 2 18 17 62 35 98 17 36 29 68 26 71 -7 7 -35 -50 -62 -127
-13 -36 -23 -57 -24 -48 -1 61 92 224 156 273 39 30 112 65 134 64 8 0 -9 -9
-37 -20z m-6695 -20 c-3 -8 -7 -3 -11 10 -4 17 -3 21 5 13 5 -5 8 -16 6 -23z
m4927 -25 c117 -7 135 -12 135 -35 0 -28 -22 -33 -66 -14 -33 14 -63 16 -184
11 l-145 -6 -23 30 -23 30 108 -5 c59 -3 149 -7 198 -11z m-5513 -2 c27 -3 10
-30 -24 -37 -16 -4 -32 -14 -35 -23 -9 -24 -25 -32 -44 -22 -9 5 -19 7 -22 3
-13 -12 -19 29 -9 52 13 28 50 35 134 27z m963 -12 c10 -11 15 -23 12 -27 -4
-3 -7 -2 -7 4 0 16 -31 25 -45 13 -11 -9 -12 -7 -8 9 7 26 25 27 48 1z m260
-13 c13 -12 28 -16 45 -12 19 4 21 3 10 -5 -8 -5 -22 -10 -32 -10 -9 0 -18 -6
-21 -12 -2 -8 -8 -9 -13 -4 -5 5 -4 11 4 13 16 6 -3 33 -24 33 -7 0 -16 5 -19
11 -11 17 28 6 50 -14z m2011 -80 c9 -16 13 -31 10 -35 -3 -3 -6 -1 -6 5 0 6
-16 35 -36 64 -23 36 -26 44 -9 24 14 -16 33 -43 41 -58z m-2346 69 c0 -11
-19 -15 -25 -6 -3 5 1 10 9 10 9 0 16 -2 16 -4z m570 -6 c0 -5 -4 -10 -10 -10
-5 0 -10 5 -10 10 0 6 5 10 10 10 6 0 10 -4 10 -10z m1300 -34 c1 -6 7 0 15
14 14 24 14 23 9 -18 -7 -48 17 -98 42 -88 8 3 14 1 14 -3 0 -5 -6 -11 -12
-14 -7 -2 -10 -7 -6 -11 12 -13 72 51 84 90 l12 39 -4 -50 c-2 -27 -7 -68 -10
-90 -4 -30 -2 -36 5 -25 6 8 11 11 11 5 -1 -5 -7 -19 -15 -29 -8 -10 -12 -23
-9 -27 3 -5 1 -9 -5 -9 -18 0 -20 15 -6 73 12 50 11 57 -1 46 -7 -6 -12 -15
-9 -19 3 -4 -5 -11 -18 -14 -21 -6 -21 -7 -4 -20 9 -7 17 -18 17 -25 0 -20
-29 -12 -62 18 -26 23 -32 36 -31 67 0 26 -2 33 -6 20 -5 -14 -10 -16 -15 -8
-8 14 -16 15 -34 3 -11 -7 -11 -16 -1 -51 13 -42 12 -43 -17 -66 -30 -25 -64
-32 -64 -14 0 7 -6 7 -19 0 -14 -7 -21 -6 -24 3 -2 6 -8 9 -12 4 -5 -4 7 -24
26 -43 24 -26 28 -33 12 -25 -12 6 -30 22 -41 36 l-20 26 -69 -32 c-37 -17
-84 -38 -103 -47 -37 -16 -36 -17 24 -36 10 -4 16 -9 14 -12 -3 -3 -23 2 -44
11 -21 9 -49 13 -61 10 -19 -4 -22 -1 -21 24 1 25 3 28 15 15 8 -8 21 -14 30
-14 13 0 13 3 3 15 -8 9 -8 15 -2 15 6 0 12 -6 15 -12 3 -10 12 -9 38 4 19 9
60 28 92 42 32 15 56 30 53 35 -3 4 7 14 22 21 15 7 35 16 45 21 15 8 16 7 5
-11 -7 -11 -24 -20 -38 -21 l-25 -1 25 -7 c30 -9 68 -2 50 9 -9 5 -9 9 -1 14
20 13 13 39 -9 33 -11 -3 -18 -1 -15 3 3 5 -7 11 -22 13 -23 3 -21 4 10 6 30
1 37 5 37 22 0 11 -10 29 -22 40 -17 14 -18 17 -5 13 13 -5 16 -2 12 12 -3 11
0 8 7 -6 7 -14 19 -30 28 -37 18 -14 60 -17 60 -4 0 5 11 8 25 6 30 -3 32 14
10 71 -14 35 -14 37 0 20 8 -11 15 -25 15 -30z m-1800 24 c0 -5 -4 -10 -10
-10 -5 0 -10 5 -10 10 0 6 5 10 10 10 6 0 10 -4 10 -10z m430 1 c0 -4 -11 -6
-25 -3 -14 2 -25 6 -25 8 0 2 11 4 25 4 14 0 25 -4 25 -9z m168 -15 c4 -17 2
-17 -25 0 -15 10 -30 20 -33 22 -2 2 9 2 25 -1 19 -2 31 -10 33 -21z m-1584 5
c3 -5 -1 -14 -9 -21 -13 -10 -15 -9 -15 9 0 21 14 28 24 12z m921 -1 c-3 -5
-14 -10 -23 -9 -14 0 -13 2 3 9 27 11 27 11 20 0z m6484 -30 c4 -3 15 -24 25
-47 19 -42 37 -52 64 -34 9 5 12 21 8 47 l-6 39 12 -35 c6 -19 12 -36 13 -38
2 -2 26 6 56 17 29 11 54 19 57 17 2 -2 -24 -14 -57 -27 -34 -13 -61 -27 -61
-31 0 -4 -6 -5 -12 -3 -7 3 -19 1 -27 -4 -10 -7 -11 -13 -1 -31 11 -20 10 -25
-6 -37 -16 -12 -16 -13 10 -13 40 0 76 -41 76 -85 0 -37 -14 -74 -34 -87 -19
-13 -53 -9 -67 9 -13 15 -12 15 8 3 31 -19 70 8 79 55 7 42 -8 65 -42 65 -23
0 -64 -31 -64 -48 0 -17 59 0 65 19 7 22 25 26 25 6 0 -27 -26 -46 -65 -49
-34 -3 -39 -6 -37 -23 2 -11 0 -17 -4 -12 -4 4 -10 25 -13 47 l-6 40 -50 -40
c-27 -21 -51 -37 -53 -36 -3 4 51 61 55 58 10 -7 33 14 33 29 0 21 39 61 52
53 9 -6 11 9 2 19 -6 5 -37 -18 -77 -58 -11 -11 -16 -14 -12 -6 6 11 4 13 -11
7 -10 -5 -43 -10 -73 -11 -29 -2 -55 -6 -58 -9 -3 -2 18 -13 46 -23 28 -10 51
-21 51 -25 0 -4 -24 2 -52 13 -29 12 -62 24 -73 27 -27 7 -63 32 -47 32 8 0
21 -4 31 -9 10 -6 35 -5 66 2 32 7 42 12 29 15 -14 2 -24 12 -26 27 -3 13 -2
23 1 22 3 -1 7 2 9 7 1 6 -3 11 -10 12 -7 2 -33 10 -58 18 l-45 16 44 -6 c42
-6 44 -5 28 11 -26 25 -20 32 6 7 13 -12 26 -20 29 -17 3 3 11 -1 17 -9 10
-11 19 -12 42 -4 25 9 28 14 22 36 -3 15 -18 38 -33 52 -14 14 -18 19 -8 11
15 -12 18 -12 18 0 1 14 32 -37 36 -58 3 -15 57 -83 67 -83 19 0 3 32 -28 56
-20 15 -33 29 -30 32 3 3 15 -4 28 -16 13 -12 26 -22 30 -22 13 0 6 95 -8 114
-8 11 -15 25 -15 30 0 6 6 2 12 -9 6 -11 14 -22 17 -25z m-7339 20 c0 -3 12
-6 28 -7 15 -1 46 -5 70 -9 24 -4 66 -2 95 4 29 6 85 13 126 16 l74 5 -28 -29
c-15 -16 -32 -27 -37 -24 -4 3 -8 1 -8 -4 0 -5 -34 -17 -75 -27 -67 -15 -74
-19 -63 -34 12 -14 11 -14 -12 1 -45 28 -69 -6 -71 -96 0 -18 0 -18 -14 0 -8
11 -15 33 -16 49 -1 24 -3 25 -6 8 -5 -25 -23 -32 -23 -9 0 8 -3 21 -6 29 -3
10 1 17 13 19 12 2 -5 15 -49 37 -67 33 -78 47 -57 68 10 10 59 13 59 3z
m7200 0 c0 -5 -2 -10 -4 -10 -3 0 -8 5 -11 10 -3 6 -1 10 4 10 6 0 11 -4 11
-10z m-5780 -10 c0 -5 -5 -10 -11 -10 -5 0 -7 5 -4 10 3 6 8 10 11 10 2 0 4
-4 4 -10z m75 -10 c3 -5 1 -10 -4 -10 -6 0 -11 5 -11 10 0 6 2 10 4 10 3 0 8
-4 11 -10z m4063 -6 c12 -9 -44 -23 -113 -27 l-80 -6 65 23 c54 19 113 23 128
10z m-4270 -8 c-7 -8 -15 -12 -17 -11 -5 6 10 25 20 25 5 0 4 -6 -3 -14z m182
4 c0 -5 -4 -10 -10 -10 -5 0 -10 5 -10 10 0 6 5 10 10 10 6 0 10 -4 10 -10z
m90 0 c0 -5 -7 -10 -15 -10 -8 0 -15 -5 -15 -12 0 -6 -3 -9 -6 -5 -11 10 4 37
21 37 8 0 15 -4 15 -10z m3584 -29 c-5 -6 -34 20 -34 30 0 5 8 1 18 -8 10 -10
17 -20 16 -22z m-3737 10 c10 -15 9 -20 -2 -25 -9 -3 -12 0 -8 10 3 7 0 14 -6
14 -6 0 -11 5 -11 10 0 16 14 11 27 -9z m-82 -1 c3 -5 1 -10 -4 -10 -6 0 -11
5 -11 10 0 6 2 10 4 10 3 0 8 -4 11 -10z m125 -32 c0 -26 -9 -19 -15 11 -2 12
0 19 6 16 5 -4 9 -16 9 -27z m3828 15 c-10 -2 -28 -2 -40 0 -13 2 -5 4 17 4
22 1 32 -1 23 -4z m-3763 -13 c3 -5 1 -10 -4 -10 -6 0 -11 5 -11 10 0 6 2 10
4 10 3 0 8 -4 11 -10z m35 0 c0 -5 -4 -10 -10 -10 -5 0 -10 5 -10 10 0 6 5 10
10 10 6 0 10 -4 10 -10z m815 0 c3 -5 19 -10 35 -10 16 0 31 -4 34 -9 3 -5
-15 -5 -41 0 -26 5 -56 6 -67 3 -18 -6 -19 -5 -7 10 15 18 37 21 46 6z m2849
-10 c14 -14 -83 -24 -110 -11 -14 6 -23 15 -20 20 7 10 117 3 130 -9z m-2729
-13 c15 -4 14 -5 -7 -6 -21 -1 -28 4 -28 17 0 11 3 13 8 6 4 -7 16 -14 27 -17z
m415 -7 c0 -5 -5 -10 -11 -10 -5 0 -7 5 -4 10 3 6 8 10 11 10 2 0 4 -4 4 -10z
m-1320 -32 c0 -18 -2 -20 -9 -8 -6 8 -7 18 -5 22 9 14 14 9 14 -14z m894 -3
c15 -22 15 -26 2 -31 -9 -3 -21 -4 -28 -1 -7 3 -2 6 11 6 l24 1 -23 25 c-13
14 -19 25 -13 25 6 0 18 -11 27 -25z m466 -47 c-33 -47 -46 -74 -39 -79 7 -4
8 -9 1 -13 -22 -14 -20 28 3 62 l25 37 -22 7 c-20 5 -19 6 8 7 22 1 37 9 48
26 9 14 19 25 21 25 3 0 -17 -32 -45 -72z m-1252 44 c6 -18 -15 -14 -22 4 -4
10 -1 14 6 12 6 -2 14 -10 16 -16z m5924 5 c-6 -7 -30 -23 -54 -36 -50 -28
-48 -24 7 18 42 31 65 40 47 18z m-4381 -20 c-10 -9 -11 -8 -5 6 3 10 9 15 12
12 3 -3 0 -11 -7 -18z m-1565 -9 c4 -13 12 -26 18 -31 6 -4 1 -6 -11 -4 -12 2
-26 6 -29 10 -4 4 -16 7 -26 7 -10 0 -18 5 -18 10 0 13 27 13 35 0 4 -6 11 -8
16 -4 6 4 6 11 -2 20 -7 9 -8 14 -1 14 6 0 14 -10 18 -22z m-182 -4 c9 -24 2
-26 -12 -4 -7 11 -8 20 -3 20 5 0 12 -7 15 -16z m1513 0 c-3 -3 -12 -4 -19 -1
-8 3 -5 6 6 6 11 1 17 -2 13 -5z m178 -3 c5 -10 -134 -5 -144 4 -2 3 28 5 67
5 39 0 73 -4 77 -9z m-382 -15 c63 -26 91 -105 60 -165 -18 -35 -26 -39 -96
-48 -77 -10 -117 76 -62 132 46 45 117 28 135 -32 6 -22 8 -24 9 -7 2 38 -36
74 -78 74 -47 0 -78 -22 -102 -74 l-19 -41 4 50 c4 44 3 48 -10 30 -8 -10 -14
-13 -14 -7 0 7 20 33 45 57 48 49 73 55 128 31z m4722 -18 c6 -4 0 -8 -12 -8
-16 0 -21 4 -16 15 3 9 8 12 12 8 3 -4 11 -11 16 -15z m-5875 -4 c0 -2 -7 -4
-15 -4 -8 0 -15 4 -15 10 0 5 7 7 15 4 8 -4 15 -8 15 -10z m675 6 c3 -5 2 -10
-4 -10 -5 0 -13 5 -16 10 -3 6 -2 10 4 10 5 0 13 -4 16 -10z m677 -28 c-29
-14 -51 -30 -49 -35 1 -5 25 -21 52 -35 28 -15 52 -30 55 -33 11 -13 70 -39
90 -39 11 0 20 -4 20 -10 0 -5 6 -10 13 -10 8 0 14 -6 14 -14 0 -17 -48 6
-220 107 -26 15 -45 32 -42 38 8 11 96 58 110 58 6 0 -14 -12 -43 -27z m4615
22 c-3 -3 -12 -4 -19 -1 -8 3 -5 6 6 6 11 1 17 -2 13 -5z m-5926 -27 c-10 -9
-11 -8 -5 6 3 10 9 15 12 12 3 -3 0 -11 -7 -18z m5876 17 c-3 -3 -12 -4 -19
-1 -8 3 -5 6 6 6 11 1 17 -2 13 -5z m-5932 -14 c-3 -5 -11 -10 -16 -10 -6 0
-7 5 -4 10 3 6 11 10 16 10 6 0 7 -4 4 -10z m597 -24 c2 -19 0 -32 -4 -30 -8
5 -12 64 -4 64 2 0 6 -15 8 -34z m2946 13 c13 -5 44 -10 70 -10 42 -1 44 -2
17 -9 -16 -4 -67 -8 -112 -9 -45 0 -93 -5 -106 -10 -14 -5 -35 -7 -48 -4 l-23
6 22 8 c12 5 22 15 22 23 0 8 8 17 18 19 22 6 111 -3 140 -14z m1824 -4 c3
-14 1 -25 -3 -25 -5 0 -9 11 -9 25 0 14 2 25 4 25 2 0 6 -11 8 -25z m645 19
c-3 -3 -12 -4 -19 -1 -8 3 -5 6 6 6 11 1 17 -2 13 -5z m-567 -18 c0 -3 -4 -8
-10 -11 -5 -3 -10 -1 -10 4 0 6 5 11 10 11 6 0 10 -2 10 -4z m351 -19 c-13
-13 -26 -3 -16 12 3 6 11 8 17 5 6 -4 6 -10 -1 -17z m-4164 -9 c-3 -8 -6 -5
-6 6 -1 11 2 17 5 13 3 -3 4 -12 1 -19z m3783 8 c0 -2 -7 -7 -16 -10 -8 -3
-12 -2 -9 4 6 10 25 14 25 6z m71 -13 c-14 -24 -55 -72 -45 -53 12 24 45 70
50 70 3 0 0 -8 -5 -17z m-4641 -3 c8 -5 11 -10 5 -10 -5 0 -17 5 -25 10 -8 5
-10 10 -5 10 6 0 17 -5 25 -10z m1589 -9 c-13 -11 -26 -17 -29 -14 -6 6 30 33
43 33 5 0 -1 -9 -14 -19z m-879 0 c0 -13 -57 -31 -94 -30 -29 1 -29 2 9 10 22
5 44 14 49 19 13 13 36 13 36 1z m935 -1 c3 -6 -1 -7 -9 -4 -18 7 -21 14 -7
14 6 0 13 -4 16 -10z m-1675 -10 c8 -5 11 -10 5 -10 -5 0 -17 5 -25 10 -8 5
-10 10 -5 10 6 0 17 -5 25 -10z m64 -5 c-4 -8 -1 -15 4 -15 18 0 65 -20 60
-25 -3 -3 -21 1 -40 9 l-35 15 -32 -44 c-18 -25 -29 -49 -26 -55 3 -5 0 -10
-8 -10 -8 0 -22 -12 -32 -26 -19 -30 -23 -29 52 -8 23 6 23 6 7 -32 -16 -38
-32 -64 -22 -34 22 63 23 61 -25 44 -25 -8 -52 -23 -61 -33 -14 -15 -13 -19
10 -45 30 -31 44 -28 22 6 -14 22 -14 23 9 24 18 2 21 -1 13 -11 -14 -17 -3
-43 22 -51 28 -9 98 40 98 69 0 17 2 19 9 8 8 -13 12 -13 28 -1 10 7 7 3 -7
-11 -20 -19 -82 -70 -129 -106 -3 -2 1 -8 7 -13 7 -6 10 -7 7 -4 -4 6 66 64
118 97 15 10 27 23 27 31 0 7 10 21 22 32 19 16 20 16 9 1 -17 -22 -7 -34 14
-17 8 7 15 8 15 3 0 -5 -11 -15 -25 -21 -19 -9 -25 -19 -25 -44 0 -18 -5 -40
-10 -48 -7 -10 -8 -2 -4 29 l7 45 -29 -23 c-19 -15 -33 -39 -41 -73 -7 -28
-11 -53 -8 -56 3 -3 5 3 5 12 0 19 10 19 78 -2 32 -11 33 -10 57 40 13 28 22
55 19 59 -3 5 0 9 6 9 6 0 15 10 21 23 l10 22 -6 -22 c-3 -13 -8 -33 -11 -45
-4 -16 0 -13 16 11 15 24 19 42 15 62 -4 19 -3 29 5 29 6 0 8 5 5 10 -3 6 -1
10 4 10 6 0 11 -5 11 -11 0 -6 7 -8 17 -5 10 4 14 4 10 0 -9 -9 32 -54 50 -54
7 0 14 10 14 23 l2 22 4 -22 c3 -16 11 -22 26 -20 19 2 21 -2 19 -34 -3 -29 2
-39 22 -52 24 -16 26 -16 41 6 15 21 14 23 -12 46 -32 28 -43 13 -19 -24 9
-14 12 -25 6 -25 -13 0 -29 41 -27 69 2 26 3 26 39 -4 16 -14 34 -25 39 -25
13 0 11 24 -3 39 -10 11 -8 10 10 0 24 -15 27 -24 12 -34 -15 -9 -12 -27 3
-19 6 4 3 -3 -8 -16 l-20 -23 23 7 c14 5 22 3 22 -5 0 -7 8 -5 21 7 20 18 20
19 2 34 -18 16 -77 120 -68 120 3 0 17 -18 31 -40 15 -22 31 -37 35 -34 5 3 8
2 7 -3 -2 -4 4 -18 13 -31 l16 -23 16 24 c12 19 13 27 4 37 -9 10 -9 11 1 6
20 -12 45 13 31 30 -16 19 -39 17 -55 -3 -12 -17 -14 -17 -31 1 -17 18 -17 18
5 11 13 -4 22 -2 22 4 0 6 -10 13 -22 16 -13 3 -65 14 -117 25 -52 11 -97 23
-100 26 -3 4 5 4 19 1 14 -3 43 -9 65 -13 l39 -7 -17 26 c-9 15 -17 30 -17 34
0 4 11 -9 25 -29 22 -33 31 -37 97 -49 40 -7 81 -16 91 -21 16 -8 18 -7 12 11
-4 15 -2 21 9 21 8 0 20 8 25 18 22 38 9 -6 -15 -53 -27 -50 -112 -165 -123
-165 -3 -1 -22 -14 -41 -31 -26 -22 -30 -29 -15 -26 41 7 83 38 148 108 37 40
72 88 78 108 13 42 35 70 24 31 -28 -98 -155 -242 -261 -298 -290 -151 -632
-11 -733 300 -7 21 -11 46 -9 55 2 10 14 -12 27 -49 12 -37 33 -83 47 -103 13
-20 24 -40 24 -45 0 -12 117 -110 133 -111 7 -1 16 -1 21 0 4 1 14 -6 21 -15
10 -14 13 -15 20 -3 5 8 5 11 1 7 -9 -7 -15 -2 -105 79 -35 32 -71 74 -82 94
-28 57 -59 142 -59 166 0 12 -4 23 -8 25 -5 2 -5 14 -1 28 6 22 7 23 8 4 1
-25 25 -39 71 -43 10 -1 8 -5 -7 -16 -12 -9 -26 -15 -30 -14 -34 6 -18 -6 22
-16 l50 -13 -42 -1 c-41 -1 -42 -2 -31 -25 13 -30 36 -40 54 -25 22 18 16 31
-7 18 -17 -9 -20 -8 -17 3 3 7 14 13 26 13 18 1 92 77 92 96 0 3 -10 11 -22
17 -21 10 -20 10 8 6 25 -5 34 -1 47 20 19 29 30 34 21 11z m2716 6 c31 7 75
5 145 -6 11 -2 29 -4 40 -5 16 0 17 -2 5 -9 -8 -5 -64 -12 -125 -15 -60 -4
-117 -9 -125 -11 -9 -3 -22 7 -31 24 l-16 28 36 -7 c20 -3 52 -3 71 1z m-223
-38 c-7 -22 -13 -31 -15 -21 -3 15 14 58 22 58 2 0 -1 -17 -7 -37z m2601 25
c-6 -16 -58 -27 -84 -17 -14 6 -10 8 18 8 20 1 40 6 43 11 9 14 27 12 23 -2z
m27 2 c3 -5 1 -10 -4 -10 -6 0 -11 5 -11 10 0 6 2 10 4 10 3 0 8 -4 11 -10z
m-235 -4 c0 -3 -4 -8 -10 -11 -5 -3 -10 -1 -10 4 0 6 5 11 10 11 6 0 10 -2 10
-4z m-4419 -20 c15 1 26 -5 26 -13 0 -17 -19 -17 -62 1 -38 16 -48 32 -12 19
12 -4 34 -7 48 -7z m1066 -8 c-3 -8 -6 -5 -6 6 -1 11 2 17 5 13 3 -3 4 -12 1
-19z m-1707 -8 c0 -5 -8 -10 -17 -10 -15 0 -16 2 -3 10 19 12 20 12 20 0z
m-113 -32 c-3 -7 -5 -2 -5 12 0 14 2 19 5 13 2 -7 2 -19 0 -25z m1883 17 c-15
-18 -56 -20 -66 -3 -5 8 -2 9 9 5 9 -3 27 -2 39 3 31 12 32 12 18 -5z m3157 9
c-3 -3 -30 -5 -60 -5 -60 0 -67 -8 -67 -71 0 -16 -5 -28 -10 -28 -6 0 -8 10
-6 23 15 67 13 72 -27 72 -37 1 -55 -19 -49 -52 2 -7 -2 -13 -8 -13 -6 0 -9 4
-6 9 4 5 0 12 -6 15 -9 3 -8 8 5 16 9 6 17 15 17 20 0 5 -8 10 -17 13 -10 2
40 4 111 5 71 1 127 -1 123 -4z m430 -26 c-3 -8 -6 -5 -6 6 -1 11 2 17 5 13 3
-3 4 -12 1 -19z m-4440 -10 c-3 -8 -6 -5 -6 6 -1 11 2 17 5 13 3 -3 4 -12 1
-19z m4388 -5 c-6 -24 -39 -104 -53 -127 -3 -5 0 -6 6 -2 6 3 27 34 47 67 21
33 39 58 42 55 12 -12 -60 -141 -107 -190 -90 -95 -230 -138 -338 -102 -72 24
-133 68 -171 123 l-33 48 42 -48 c76 -86 166 -125 259 -111 75 11 77 20 4 20
-37 0 -84 6 -104 13 -31 10 -36 16 -32 34 4 17 3 19 -6 7 -21 -31 -22 1 0 44
24 49 39 55 20 8 -13 -31 -1 -82 19 -82 6 0 8 5 4 11 -9 16 15 29 56 29 40 0
104 29 106 48 1 6 3 15 4 20 1 4 2 10 1 14 0 4 7 4 16 1 14 -6 14 -8 -3 -20
-10 -7 -13 -13 -6 -13 6 0 23 10 38 23 24 21 25 26 14 46 -10 19 -10 22 1 16
9 -6 10 -3 5 10 -6 17 -5 18 11 4 24 -21 53 -13 54 14 0 21 1 21 8 2 8 -19 8
-19 19 0 10 18 11 18 12 -9 l0 -28 19 23 c17 21 17 25 3 35 -9 7 -22 10 -29 7
-7 -3 -13 2 -13 11 0 15 3 15 35 2 32 -14 35 -13 40 5 10 29 18 23 10 -8z
m-2155 -3 c0 -5 -12 -10 -27 -10 -22 0 -25 2 -13 10 20 13 40 13 40 0z m-401
-29 c-6 -2 -18 4 -27 13 -15 15 -15 15 10 4 15 -7 23 -15 17 -17z m-2571 12
c-10 -2 -26 -2 -35 0 -10 3 -2 5 17 5 19 0 27 -2 18 -5z m592 -28 c9 -10 9
-15 1 -15 -6 0 -11 4 -11 9 0 5 -8 12 -17 14 -15 4 -15 5 -2 6 9 0 22 -6 29
-14z m-410 1 c0 -11 -19 -15 -25 -6 -3 5 1 10 9 10 9 0 16 -2 16 -4z m-175
-16 c-27 -12 -43 -12 -25 0 8 5 22 9 30 9 10 0 8 -3 -5 -9z m550 0 c13 -6 15
-9 5 -9 -8 0 -22 4 -30 9 -18 12 -2 12 25 0z m2478 -12 c-20 -19 -35 -22 -141
-26 -164 -6 -180 2 -33 17 67 7 133 16 145 21 40 17 52 12 29 -12z m1580 -41
c3 -22 2 -35 -4 -32 -5 4 -9 -2 -9 -11 0 -14 -3 -15 -12 -6 -9 9 -9 15 0 24 7
7 12 25 12 42 0 38 6 31 13 -17z m-30 8 c-7 -19 -17 -19 -32 -1 -10 11 -8 15
6 18 25 6 33 0 26 -17z m295 0 c-3 -3 -9 2 -12 12 -6 14 -5 15 5 6 7 -7 10
-15 7 -18z m-4498 -27 c0 -12 -6 -9 -26 13 -19 22 -19 22 4 8 12 -8 22 -17 22
-21z m-460 -22 c0 -3 -4 -8 -10 -11 -5 -3 -10 -1 -10 4 0 6 5 11 10 11 6 0 10
-2 10 -4z m4717 -33 c-4 -3 -1 -13 6 -22 11 -14 10 -14 -5 -2 -21 15 -23 31
-6 31 6 0 8 -3 5 -7z m-4581 -80 c-10 -10 -19 5 -10 18 6 11 8 11 12 0 2 -7 1
-15 -2 -18z m412 -143 c3 -9 -1 -11 -13 -6 -11 4 -22 1 -26 -6 -4 -7 -11 -9
-15 -5 -9 8 27 38 40 34 6 -2 12 -9 14 -17z m-98 -28 c0 -5 -6 -16 -12 -25
-10 -13 -36 -18 -110 -23 -67 -4 -98 -3 -98 4 0 17 14 22 72 27 71 6 109 12
116 19 8 9 32 7 32 -2z m30 4 c0 -3 -4 -8 -10 -11 -5 -3 -10 -1 -10 4 0 6 5
11 10 11 6 0 10 -2 10 -4z m-290 -26 c0 -5 -7 -10 -15 -10 -8 0 -15 5 -15 10
0 6 7 10 15 10 8 0 15 -4 15 -10z m2980 -960 c0 -5 -5 -10 -11 -10 -5 0 -7 5
-4 10 3 6 8 10 11 10 2 0 4 -4 4 -10z m1795 -150 c3 -5 1 -10 -4 -10 -6 0 -11
5 -11 10 0 6 2 10 4 10 3 0 8 -4 11 -10z m-1180 -130 c3 -5 1 -10 -4 -10 -6 0
-11 5 -11 10 0 6 2 10 4 10 3 0 8 -4 11 -10z"/>
<path d="M4022 6115 c0 -16 2 -22 5 -12 2 9 2 23 0 30 -3 6 -5 -1 -5 -18z"/>
<path d="M5250 5877 c0 -17 21 -57 28 -53 11 7 42 -47 47 -81 10 -78 50 -168
115 -265 75 -111 186 -268 197 -277 15 -14 -20 41 -72 113 -31 43 -54 80 -52
82 5 5 81 -70 115 -112 31 -39 -85 129 -176 255 -43 59 -83 127 -96 164 -31
84 -59 138 -85 161 -12 11 -21 16 -21 13z"/>
<path d="M3911 5550 c0 -8 4 -24 9 -35 5 -13 9 -14 9 -5 0 8 -4 24 -9 35 -5
13 -9 14 -9 5z"/>
<path d="M3936 5386 c-11 -17 -22 -23 -34 -20 -12 4 -13 3 -4 -3 11 -8 11 -12
0 -20 -24 -19 -72 -25 -193 -24 -66 0 -136 -4 -155 -9 -25 -6 15 -8 135 -7
150 2 174 4 204 22 36 21 79 71 69 80 -3 3 -13 -6 -22 -19z"/>
<path d="M3758 5363 c6 -2 18 -2 25 0 6 3 1 5 -13 5 -14 0 -19 -2 -12 -5z"/>
<path d="M3468 5323 c7 -3 16 -2 19 1 4 3 -2 6 -13 5 -11 0 -14 -3 -6 -6z"/>
<path d="M2760 5235 c-11 -13 -10 -14 4 -9 9 3 16 10 16 15 0 13 -6 11 -20 -6z"/>
<path d="M5680 5202 c17 -28 34 -52 36 -52 8 0 -39 80 -55 93 -7 6 1 -12 19
-41z"/>
<path d="M5652 5170 c7 -11 16 -20 21 -20 4 0 3 9 -3 20 -6 11 -15 20 -20 20
-6 0 -5 -9 2 -20z"/>
<path d="M6190 5160 c36 -11 52 -11 45 0 -3 6 -21 10 -38 9 -31 -1 -31 -1 -7
-9z"/>
<path d="M6258 5163 c6 -2 18 -2 25 0 6 3 1 5 -13 5 -14 0 -19 -2 -12 -5z"/>
<path d="M1600 4941 c-121 -49 -228 -107 -217 -118 5 -4 115 51 134 67 7 5 15
10 18 10 3 0 27 10 53 22 26 12 67 29 92 39 25 10 38 18 30 18 -8 0 -58 -17
-110 -38z"/>
<path d="M6437 4769 c-9 -5 -22 -7 -27 -4 -26 16 -6 -6 23 -25 l32 -22 -62 6
c-49 4 -62 3 -67 -10 -10 -26 -7 -36 9 -30 19 7 19 1 -1 -18 -8 -9 -11 -16 -5
-16 6 0 11 -4 11 -9 0 -5 -24 -14 -52 -19 -40 -7 10 -10 207 -10 143 0 254 2
248 5 -9 3 -10 10 -4 21 5 9 12 41 16 70 6 44 4 52 -9 52 -9 0 -16 -5 -16 -11
0 -5 -5 -7 -10 -4 -8 5 -7 11 1 21 10 12 -10 14 -132 14 -80 0 -152 -5 -162
-11z"/>
<path d="M6226 4753 c-5 -11 -2 -14 9 -9 10 3 27 -4 43 -19 23 -22 28 -23 41
-10 19 18 14 23 -42 40 -40 12 -46 12 -51 -2z"/>
<path d="M4735 4730 c-3 -6 2 -13 12 -17 10 -3 23 -8 28 -11 6 -3 1 4 -9 16
-22 25 -23 25 -31 12z"/>
<path d="M7770 4690 c0 -5 -7 -7 -15 -4 -11 5 -13 2 -9 -10 9 -23 34 -20 34 4
0 11 -2 20 -5 20 -3 0 -5 -4 -5 -10z"/>
<path d="M7082 4679 c2 -6 8 -10 13 -10 5 0 11 4 13 10 2 6 -4 11 -13 11 -9 0
-15 -5 -13 -11z"/>
<path d="M7858 4683 c12 -2 30 -2 40 0 9 3 -1 5 -23 4 -22 0 -30 -2 -17 -4z"/>
<path d="M7897 4594 c-37 -74 -33 -83 4 -10 17 32 29 60 27 62 -2 2 -16 -21
-31 -52z"/>
<path d="M6912 4610 c0 -14 2 -19 5 -12 2 6 2 18 0 25 -3 6 -5 1 -5 -13z"/>
<path d="M6877 4439 c-21 -119 -21 -132 1 -152 16 -15 68 -17 448 -21 236 -2
457 -7 491 -11 56 -6 62 -5 73 15 6 12 9 24 6 28 -3 3 -6 0 -6 -6 0 -7 -8 -12
-17 -12 -15 0 -16 -2 -3 -10 11 -7 -2 -10 -43 -10 -36 0 -56 4 -52 10 4 6 -1
7 -11 3 -12 -4 -6 8 16 35 18 23 31 44 28 47 -3 3 -15 -10 -26 -30 l-21 -35
-323 -2 c-178 -2 -372 -3 -433 -3 l-109 0 -11 39 c-9 30 -8 56 2 110 7 39 12
78 10 86 -1 8 -10 -28 -20 -81z"/>
<path d="M1727 4509 c7 -7 15 -10 18 -7 3 3 -2 9 -12 12 -14 6 -15 5 -6 -5z"/>
<path d="M2135 4510 c-3 -5 -2 -10 4 -10 5 0 13 5 16 10 3 6 2 10 -4 10 -5 0
-13 -4 -16 -10z"/>
<path d="M2245 4500 c-3 -5 -1 -10 4 -10 6 0 11 5 11 10 0 6 -2 10 -4 10 -3 0
-8 -4 -11 -10z"/>
<path d="M2350 4495 c0 -5 5 -17 10 -25 5 -8 10 -10 10 -5 0 6 -5 17 -10 25
-5 8 -10 11 -10 5z"/>
<path d="M2385 4480 c-3 -6 6 -15 20 -20 35 -13 38 -13 23 4 -7 7 -19 11 -27
8 -9 -3 -12 -1 -7 6 4 7 5 12 2 12 -3 0 -8 -5 -11 -10z"/>
<path d="M7836 4465 c-9 -26 -7 -32 5 -12 6 10 9 21 6 23 -2 3 -7 -2 -11 -11z"/>
<path d="M2310 4460 c0 -5 5 -10 11 -10 5 0 7 5 4 10 -3 6 -8 10 -11 10 -2 0
-4 -4 -4 -10z"/>
<path d="M2450 4466 c0 -2 7 -7 16 -10 8 -3 12 -2 9 4 -6 10 -25 14 -25 6z"/>
<path d="M2020 4449 c0 -5 5 -7 10 -4 6 3 10 8 10 11 0 2 -4 4 -10 4 -5 0 -10
-5 -10 -11z"/>
<path d="M2135 4441 c-3 -5 -1 -12 5 -16 5 -3 10 1 10 9 0 18 -6 21 -15 7z"/>
<path d="M2688 4423 c7 -3 16 -2 19 1 4 3 -2 6 -13 5 -11 0 -14 -3 -6 -6z"/>
<path d="M2650 4400 c0 -11 2 -20 4 -20 2 0 6 9 9 20 3 11 1 20 -4 20 -5 0 -9
-9 -9 -20z"/>
<path d="M2080 4390 c0 -5 5 -10 10 -10 6 0 10 5 10 10 0 6 -4 10 -10 10 -5 0
-10 -4 -10 -10z"/>
<path d="M2621 4384 c0 -11 3 -14 6 -6 3 7 2 16 -1 19 -3 4 -6 -2 -5 -13z"/>
<path d="M2768 4383 c6 -2 18 -2 25 0 6 3 1 5 -13 5 -14 0 -19 -2 -12 -5z"/>
<path d="M2775 4320 c3 -5 8 -10 11 -10 2 0 4 5 4 10 0 6 -5 10 -11 10 -5 0
-7 -4 -4 -10z"/>
<path d="M2780 4244 c0 -8 5 -12 10 -9 6 4 8 11 5 16 -9 14 -15 11 -15 -7z"/>
<path d="M7685 4250 c-3 -6 1 -7 9 -4 18 7 21 14 7 14 -6 0 -13 -4 -16 -10z"/>
<path d="M4793 4223 c26 -2 67 -2 90 0 23 2 2 3 -48 3 -49 0 -68 -1 -42 -3z"/>
<path d="M5007 4223 c18 -2 50 -2 70 0 21 2 7 4 -32 4 -38 0 -55 -2 -38 -4z"/>
<path d="M5133 4223 c9 -2 23 -2 30 0 6 3 -1 5 -18 5 -16 0 -22 -2 -12 -5z"/>
<path d="M4976 5367 c3 -10 9 -15 12 -12 3 3 0 11 -7 18 -10 9 -11 8 -5 -6z"/>
<path d="M6002 5339 c2 -7 10 -15 17 -17 8 -3 12 1 9 9 -2 7 -10 15 -17 17 -8
3 -12 -1 -9 -9z"/>
<path d="M4468 5283 c7 -3 16 -2 19 1 4 3 -2 6 -13 5 -11 0 -14 -3 -6 -6z"/>
<path d="M3682 4249 c5 -16 14 -27 18 -24 12 7 0 43 -15 49 -11 4 -11 -1 -3
-25z"/>
<path d="M8420 4255 c0 -17 4 -23 15 -19 11 5 12 11 4 25 -13 26 -19 24 -19
-6z"/>
<path d="M8426 4221 c-7 -10 32 -47 40 -38 3 3 3 15 -1 26 -6 21 -29 28 -39
12z"/>
<path d="M3790 4070 c8 -5 22 -10 30 -10 13 0 13 1 0 10 -8 5 -22 10 -30 10
-13 0 -13 -1 0 -10z"/>
<path d="M3767 4049 c6 -6 9 -18 6 -26 -5 -12 -7 -12 -14 -1 -7 10 -9 10 -9
-3 0 -19 27 -44 57 -53 19 -6 21 -3 21 29 0 29 -5 38 -29 50 -33 18 -47 19
-32 4z"/>
<path d="M3844 4045 c-19 -14 -19 -14 2 -15 12 0 21 6 21 15 0 18 1 18 -23 0z"/>
<path d="M3855 4006 c16 -13 17 -15 3 -10 -12 4 -18 1 -18 -10 0 -22 13 -20
35 4 10 11 13 20 7 20 -6 0 -19 3 -29 6 -16 6 -16 5 2 -10z"/>
<path d="M3896 3983 c-6 -14 -5 -15 5 -6 7 7 10 15 7 18 -3 3 -9 -2 -12 -12z"/>
<path d="M3790 3829 c0 -6 7 -9 15 -5 13 4 13 2 5 -14 -7 -13 -6 -22 3 -32 8
-7 19 -25 26 -38 l12 -25 -20 25 -21 25 15 -50 c8 -27 15 -51 15 -52 0 -6 46
-2 57 5 6 4 13 25 14 46 4 42 -3 49 -56 62 -22 5 -25 8 -12 12 18 4 17 5 -4
28 -24 25 -49 32 -49 13z m84 -135 c8 -21 8 -24 -3 -24 -5 0 -11 9 -14 20 -6
24 8 27 17 4z"/>
<path d="M3917 3768 c20 -23 23 -23 23 1 0 13 -6 19 -20 18 -18 -1 -18 -2 -3
-19z"/>
<path d="M3775 3743 c-14 -21 -15 -30 -6 -45 6 -10 11 -23 11 -30 -1 -7 -6 -3
-13 8 -9 17 -17 20 -34 13 -13 -5 -23 -16 -23 -26 0 -15 2 -15 16 3 13 16 15
16 10 2 -5 -16 2 -18 45 -18 43 0 50 2 45 18 -3 9 -8 29 -12 45 -3 15 -10 27
-15 27 -5 0 -6 7 -3 15 9 24 -2 17 -21 -12z"/>
<path d="M3553 3723 c-3 -10 -8 -21 -10 -25 -2 -4 3 -5 12 -2 9 4 13 9 11 12
-3 3 -1 11 5 19 9 9 8 13 0 13 -6 0 -14 -8 -18 -17z"/>
<path d="M3920 3712 c0 -30 1 -31 25 -20 14 6 24 12 23 12 -2 1 -13 10 -25 20
l-23 19 0 -31z"/>
<path d="M3737 3723 c-4 -3 -7 -11 -7 -17 0 -6 5 -5 12 2 6 6 9 14 7 17 -3 3
-9 2 -12 -2z"/>
<path d="M4045 3680 c-3 -6 1 -7 9 -4 18 7 21 14 7 14 -6 0 -13 -4 -16 -10z"/>
<path d="M3995 3670 c3 -5 11 -10 16 -10 6 0 7 5 4 10 -3 6 -11 10 -16 10 -6
0 -7 -4 -4 -10z"/>
<path d="M3780 3616 c0 -9 5 -16 10 -16 6 0 10 4 10 9 0 6 -4 13 -10 16 -5 3
-10 -1 -10 -9z"/>
<path d="M8597 3849 c7 -7 15 -10 18 -7 3 3 -2 9 -12 12 -14 6 -15 5 -6 -5z"/>
<path d="M8546 3797 c3 -10 9 -15 12 -12 3 3 0 11 -7 18 -10 9 -11 8 -5 -6z"/>
<path d="M8460 3746 c0 -9 5 -16 10 -16 6 0 10 4 10 9 0 6 -4 13 -10 16 -5 3
-10 -1 -10 -9z"/>
<path d="M8321 3724 c0 -11 3 -14 6 -6 3 7 2 16 -1 19 -3 4 -6 -2 -5 -13z"/>
<path d="M8400 3726 c0 -9 5 -16 10 -16 6 0 10 4 10 9 0 6 -4 13 -10 16 -5 3
-10 -1 -10 -9z"/>
<path d="M8358 3723 c7 -3 16 -2 19 1 4 3 -2 6 -13 5 -11 0 -14 -3 -6 -6z"/>
</g>
</svg>
